<svg width="21" height="17" viewBox="0 0 21 17" fill="none" xmlns="http://www.w3.org/2000/svg">
<path d="M19.25 2.8125C19.25 2.4644 19.1117 2.13056 18.8656 1.88442C18.6194 1.63828 18.2856 1.5 17.9375 1.5H3.0625C2.7144 1.5 2.38056 1.63828 2.13442 1.88442C1.88828 2.13056 1.75 2.4644 1.75 2.8125V6.75H19.25V2.8125Z" stroke="#587CF4" stroke-opacity="0.8" stroke-width="1.75" stroke-linecap="round" stroke-linejoin="round"/>
<path d="M1.79883 15.0756L7.12583 9.69437L10.0046 12.4506L13.523 9.375L15.483 11.286" stroke="#587CF4" stroke-opacity="0.8" stroke-width="1.75" stroke-linecap="round" stroke-linejoin="round"/>
<path d="M19.25 5.875V14.1875C19.25 14.5356 19.1117 14.8694 18.8656 15.1156C18.6194 15.3617 18.2856 15.5 17.9375 15.5H5.25" stroke="#587CF4" stroke-opacity="0.8" stroke-width="1.75" stroke-linecap="round" stroke-linejoin="round"/>
<path d="M8.36133 4.125H16.2363" stroke="#587CF4" stroke-opacity="0.8" stroke-width="1.75" stroke-linecap="round" stroke-linejoin="round"/>
<path d="M4.86035 4.125H5.73535" stroke="#587CF4" stroke-opacity="0.8" stroke-width="1.75" stroke-linecap="round" stroke-linejoin="round"/>
<path d="M1.75 5.875V9.8125" stroke="#587CF4" stroke-opacity="0.8" stroke-width="1.75" stroke-linecap="round" stroke-linejoin="round"/>
</svg>
