<svg width="37" height="37" viewBox="0 0 37 37" fill="none" xmlns="http://www.w3.org/2000/svg">
<path d="M18.2366 18.8287C17.3516 18.8287 16.4866 19.0911 15.7508 19.5827C15.015 20.0743 14.4416 20.7731 14.1029 21.5907C13.7643 22.4082 13.6757 23.3078 13.8483 24.1758C14.0209 25.0437 14.4471 25.8409 15.0728 26.4666C15.6985 27.0924 16.4958 27.5185 17.3637 27.6911C18.2316 27.8638 19.1312 27.7752 19.9488 27.4365C20.7663 27.0979 21.4651 26.5244 21.9568 25.7886C22.4484 25.0528 22.7108 24.1878 22.7108 23.3029C22.7108 22.1162 22.2394 20.9782 21.4003 20.1391C20.5612 19.3 19.4232 18.8287 18.2366 18.8287ZM18.2366 24.7943C17.9416 24.7943 17.6532 24.7068 17.408 24.5429C17.1627 24.3791 16.9716 24.1461 16.8587 23.8736C16.7458 23.6011 16.7163 23.3012 16.7738 23.0119C16.8314 22.7226 16.9734 22.4569 17.182 22.2483C17.3906 22.0397 17.6563 21.8977 17.9456 21.8401C18.2349 21.7826 18.5348 21.8121 18.8073 21.925C19.0798 22.0379 19.3128 22.229 19.4766 22.4743C19.6405 22.7196 19.728 23.0079 19.728 23.3029C19.728 23.6984 19.5708 24.0778 19.2912 24.3575C19.0115 24.6372 18.6321 24.7943 18.2366 24.7943ZM17.1777 15.4133C17.3195 15.5491 17.4868 15.6555 17.6698 15.7265C17.8484 15.8054 18.0414 15.8462 18.2366 15.8462C18.4318 15.8462 18.6248 15.8054 18.8033 15.7265C18.9864 15.6555 19.1536 15.5491 19.2955 15.4133L22.7108 12.0577C22.9995 11.7689 23.1618 11.3773 23.1618 10.9689C23.1618 10.5606 22.9995 10.1689 22.7108 9.88019C22.4221 9.59144 22.0304 9.42923 21.6221 9.42923C21.2137 9.42923 20.8221 9.59144 20.5333 9.88019L19.728 10.7601V5.40596C19.728 5.01041 19.5708 4.63107 19.2912 4.35137C19.0115 4.07168 18.6321 3.91455 18.2366 3.91455C17.841 3.91455 17.4617 4.07168 17.182 4.35137C16.9023 4.63107 16.7452 5.01041 16.7452 5.40596V10.7601L15.9398 9.88019C15.651 9.59144 15.2594 9.42923 14.8511 9.42923C14.4427 9.42923 14.0511 9.59144 13.7623 9.88019C13.4736 10.1689 13.3114 10.5606 13.3114 10.9689C13.3114 11.3773 13.4736 11.7689 13.7623 12.0577L17.1777 15.4133ZM28.6764 23.3029C28.6764 23.0079 28.589 22.7196 28.4251 22.4743C28.2612 22.229 28.0283 22.0379 27.7558 21.925C27.4832 21.8121 27.1834 21.7826 26.8941 21.8401C26.6048 21.8977 26.339 22.0397 26.1304 22.2483C25.9219 22.4569 25.7798 22.7226 25.7223 23.0119C25.6647 23.3012 25.6943 23.6011 25.8071 23.8736C25.92 24.1461 26.1112 24.3791 26.3564 24.5429C26.6017 24.7068 26.8901 24.7943 27.185 24.7943C27.5806 24.7943 27.9599 24.6372 28.2396 24.3575C28.5193 24.0778 28.6764 23.6984 28.6764 23.3029ZM30.1679 12.863H25.6936C25.2981 12.863 24.9187 13.0201 24.639 13.2998C24.3593 13.5795 24.2022 13.9589 24.2022 14.3544C24.2022 14.75 24.3593 15.1293 24.639 15.409C24.9187 15.6887 25.2981 15.8458 25.6936 15.8458H30.1679C30.5634 15.8458 30.9427 16.003 31.2224 16.2827C31.5021 16.5624 31.6593 16.9417 31.6593 17.3372V29.2685C31.6593 29.6641 31.5021 30.0434 31.2224 30.3231C30.9427 30.6028 30.5634 30.7599 30.1679 30.7599H6.30529C5.90974 30.7599 5.53039 30.6028 5.2507 30.3231C4.97101 30.0434 4.81388 29.6641 4.81388 29.2685V17.3372C4.81388 16.9417 4.97101 16.5624 5.2507 16.2827C5.53039 16.003 5.90974 15.8458 6.30529 15.8458H10.7795C11.1751 15.8458 11.5544 15.6887 11.8341 15.409C12.1138 15.1293 12.2709 14.75 12.2709 14.3544C12.2709 13.9589 12.1138 13.5795 11.8341 13.2998C11.5544 13.0201 11.1751 12.863 10.7795 12.863H6.30529C5.11865 12.863 3.98061 13.3344 3.14153 14.1735C2.30245 15.0126 1.83105 16.1506 1.83105 17.3372V29.2685C1.83105 30.4552 2.30245 31.5932 3.14153 32.4323C3.98061 33.2714 5.11865 33.7428 6.30529 33.7428H30.1679C31.3545 33.7428 32.4925 33.2714 33.3316 32.4323C34.1707 31.5932 34.6421 30.4552 34.6421 29.2685V17.3372C34.6421 16.1506 34.1707 15.0126 33.3316 14.1735C32.4925 13.3344 31.3545 12.863 30.1679 12.863ZM7.7967 23.3029C7.7967 23.5979 7.88417 23.8862 8.04804 24.1315C8.21192 24.3767 8.44485 24.5679 8.71737 24.6808C8.98989 24.7936 9.28976 24.8232 9.57907 24.7656C9.86837 24.7081 10.1341 24.566 10.3427 24.3575C10.5513 24.1489 10.6933 23.8831 10.7509 23.5938C10.8084 23.3045 10.7789 23.0047 10.666 22.7321C10.5531 22.4596 10.362 22.2267 10.1167 22.0628C9.87143 21.8989 9.58308 21.8115 9.28811 21.8115C8.89256 21.8115 8.51321 21.9686 8.23352 22.2483C7.95383 22.528 7.7967 22.9073 7.7967 23.3029Z" fill="black"/>
</svg>
