<svg width="19" height="19" viewBox="0 0 19 19" fill="none" xmlns="http://www.w3.org/2000/svg">
<path d="M13.6897 5.43531C14.0794 5.04772 14.0794 4.41607 13.6897 4.02848L12.2562 2.59498L12.2583 2.59703C11.8789 2.21764 11.2267 1.56549 10.3039 0.644688C9.86912 0.220176 9.16571 0.224278 8.73504 0.654942L0.659065 8.72477C0.555739 8.82739 0.473735 8.94944 0.417776 9.08389C0.361817 9.21834 0.333008 9.36253 0.333008 9.50817C0.333008 9.6538 0.361817 9.79799 0.417776 9.93244C0.473735 10.0669 0.555739 10.1889 0.659065 10.2916L8.73299 18.3593C8.94116 18.5671 9.22328 18.6839 9.51741 18.6839C9.81155 18.6839 10.0937 18.5671 10.3018 18.3593L13.6877 14.9755C14.0773 14.5879 14.0773 13.9563 13.6877 13.5687C13.5005 13.3825 13.2473 13.278 12.9832 13.278C12.7192 13.278 12.4659 13.3825 12.2788 13.5687L9.71531 16.1363C9.60867 16.2429 9.44256 16.2429 9.33592 16.1363L2.88621 9.69274C2.77957 9.58609 2.77957 9.41998 2.88621 9.31334L9.33387 2.86979C9.34207 2.86158 9.35233 2.85543 9.36053 2.84723C9.46717 2.76315 9.61483 2.77135 9.71326 2.86979L12.2808 5.43531C12.6705 5.82496 13.3021 5.82496 13.6897 5.43531ZM7.37948 9.54918C7.37948 10.1268 7.60915 10.6808 8.01798 11.0892C8.4268 11.4977 8.98129 11.7271 9.55946 11.7271C10.1376 11.7271 10.6921 11.4977 11.1009 11.0892C11.5098 10.6808 11.7394 10.1268 11.7394 9.54918C11.7394 8.97156 11.5098 8.41759 11.1009 8.00915C10.6921 7.60071 10.1376 7.37125 9.55946 7.37125C8.98129 7.37125 8.4268 7.60071 8.01798 8.00915C7.60915 8.41759 7.37948 8.97156 7.37948 9.54918ZM18.3758 8.75758L15.8554 6.24947C15.4657 5.86188 14.8341 5.86188 14.4465 6.25152C14.3538 6.34375 14.2803 6.45337 14.2302 6.57408C14.18 6.69479 14.1542 6.82422 14.1542 6.95494C14.1542 7.08566 14.18 7.21509 14.2302 7.3358C14.2803 7.45652 14.3538 7.56613 14.4465 7.65836L16.1486 9.35846C16.2553 9.4651 16.2553 9.63121 16.1486 9.73785L14.4711 11.4133C14.3784 11.5056 14.3049 11.6152 14.2548 11.7359C14.2046 11.8566 14.1788 11.986 14.1788 12.1168C14.1788 12.2475 14.2046 12.3769 14.2548 12.4976C14.3049 12.6183 14.3784 12.728 14.4711 12.8202C14.6582 13.0064 14.9115 13.1109 15.1755 13.1109C15.4395 13.1109 15.6928 13.0064 15.88 12.8202L18.3778 10.3244C18.4808 10.2215 18.5624 10.0993 18.6181 9.96479C18.6737 9.83028 18.7023 9.68611 18.7021 9.54055C18.7019 9.39499 18.673 9.2509 18.617 9.11654C18.561 8.98218 18.479 8.86019 18.3758 8.75758Z" fill="#587CF4" fill-opacity="0.8"/>
</svg>
