<svg width="19" height="13" viewBox="0 0 19 13" fill="none" xmlns="http://www.w3.org/2000/svg">
<path d="M0.3125 0.59375V12.4062H18.6875V0.59375H0.3125ZM1.625 1.90625H17.375V11.0938H1.625V1.90625ZM2.9375 3.21875V9.78125H4.90625C5.99169 9.78125 6.875 8.89794 6.875 7.8125V5.1875C6.875 4.10206 5.99169 3.21875 4.90625 3.21875H2.9375ZM9.5 3.21875C8.77616 3.21875 8.1875 3.80741 8.1875 4.53125V8.46875C8.1875 9.19259 8.77616 9.78125 9.5 9.78125H10.8125V8.46875H9.5V7.15625H10.8125V5.84375H9.5V4.53125H10.8125V3.21875H9.5ZM11.9222 3.21875L13.2898 9.14141C13.3322 9.32281 13.4347 9.48455 13.5807 9.60033C13.7266 9.71611 13.9075 9.77912 14.0938 9.77912C14.28 9.77912 14.4609 9.71611 14.6068 9.60033C14.7528 9.48455 14.8553 9.32281 14.8977 9.14141L16.2653 3.21875H14.918L14.0938 6.78875L13.2695 3.21875H11.9222ZM4.25 4.53125H4.90625C5.0803 4.53125 5.24722 4.60039 5.37029 4.72346C5.49336 4.84653 5.5625 5.01345 5.5625 5.1875V7.8125C5.5625 7.98655 5.49336 8.15347 5.37029 8.27654C5.24722 8.39961 5.0803 8.46875 4.90625 8.46875H4.25V4.53125Z" fill="#587CF4" fill-opacity="0.8"/>
</svg>
