<svg width="30" height="21" viewBox="0 0 30 21" fill="none" xmlns="http://www.w3.org/2000/svg">
<path d="M1.83203 17.3333C2.44114 16.283 3.31405 15.4101 4.36441 14.801L13.9136 9.28537L29.9999 0L15.7457 9.70263C15.103 10.1391 14.9064 11.0024 15.2949 11.6739C16.7481 14.187 14.9304 17.3285 12.0287 17.3285" fill="#0087FF"/>
<path d="M3.31402 18.9304H14.0622C13.8752 18.9592 13.6833 18.9736 13.4867 18.9736H3.29004L3.31402 18.9304Z" fill="#0087FF"/>
<path d="M18.5612 20.5228C19.3717 20.5228 19.8753 19.6451 19.4676 18.9448C18.5468 17.3669 17.2662 15.175 17.2662 15.1942C17.2662 15.7554 17.1367 16.3021 16.9065 16.8009C16.8681 16.8777 16.8297 16.9544 16.7866 17.0311C16.1199 18.2302 14.8106 18.9256 13.4388 18.9256H2.73861C1.60672 18.9256 0.561151 19.5299 0 20.5084" fill="#0087FF"/>
<path d="M6.90133 8.56108L4.34498 12.9927C4.28742 13.0887 4.39773 13.199 4.49366 13.1414L13.2275 8.10065L27.2419 0.00952148L13.7886 6.31648C13.0836 6.64741 12.2395 6.38362 11.8462 5.70736L6.90133 8.56108Z" fill="#002240"/>
<path d="M18.9595 0.00488281L11.1562 4.50848L8.6286 5.96651C8.53267 6.01927 8.42716 5.91375 8.47991 5.81783L10.0866 3.03126C10.1346 2.94493 10.2449 2.93534 10.3168 3.00248C10.4895 3.15596 10.7341 3.20393 10.9595 3.11759L18.9595 0.00488281Z" fill="#002240"/>
</svg>
