<svg width="30" height="15" viewBox="0 0 30 15" fill="none" xmlns="http://www.w3.org/2000/svg">
<path d="M16.5779 10.1289C16.5779 11.1134 15.8587 11.9503 14.8854 12.0961L5.46432 13.514L0 14.2687C0.721104 13.0189 1.97837 12.1727 3.40563 11.9728L6.61136 11.5244L16.5779 10.1289Z" fill="black"/>
<path d="M24.045 6.42443L21.6724 6.75696L15.3338 7.64806L8.47961 8.61203L3.00781 9.3817L3.02836 9.34434C3.74947 8.09642 5.00486 7.24828 6.43212 7.04839L9.64159 6.59816L12.3915 6.21146C13.3237 6.08069 13.8281 5.04761 13.3573 4.23123C13.0864 3.76232 12.5578 3.50452 12.0216 3.57924L11.3285 3.67639L5.85673 4.44606L5.87728 4.4087C6.59839 3.16078 7.85378 2.31264 9.28104 2.11275L11.9207 1.74099L12.4905 1.66066L21.9004 0.338014L24.0599 0.0353754C27.2003 -0.185066 29.7092 0.638785 29.9763 2.11462C30.279 3.76793 27.6598 5.63981 24.045 6.42443Z" fill="#0087FF"/>
</svg>
