<svg width="217" height="43" viewBox="0 0 217 43" fill="none" xmlns="http://www.w3.org/2000/svg">
<path d="M3.82031 36.14C5.09031 33.95 6.91032 32.13 9.10032 30.86L29.0103 19.36L62.5503 0L32.8303 20.23C31.4903 21.14 31.0803 22.94 31.8903 24.34C34.9203 29.58 31.1303 36.13 25.0803 36.13" fill="#0087FF"/>
<path d="M6.91035 39.47H29.3204C28.9304 39.53 28.5304 39.56 28.1204 39.56H6.86035L6.91035 39.47Z" fill="#0087FF"/>
<path d="M38.7 42.7899C40.39 42.7899 41.44 40.96 40.59 39.5C38.67 36.21 36 31.6399 36 31.6799C36 32.8499 35.73 33.99 35.25 35.03C35.17 35.19 35.09 35.35 35 35.51C33.61 38.01 30.88 39.4599 28.02 39.4599H5.71001C3.35001 39.4599 1.17 40.7199 0 42.7599" fill="#0087FF"/>
<path d="M14.3904 17.85L9.06045 27.09C8.94045 27.29 9.17044 27.52 9.37044 27.4L27.5804 16.89L56.8005 0.0200195L28.7504 13.17C27.2804 13.86 25.5204 13.31 24.7004 11.9L14.3904 17.85Z" fill="#002240"/>
<path d="M39.5298 0.0100098L23.2598 9.40001L17.9898 12.44C17.7898 12.55 17.5698 12.33 17.6798 12.13L21.0298 6.32001C21.1298 6.14001 21.3598 6.12001 21.5098 6.26001C21.8698 6.58001 22.3798 6.68002 22.8498 6.50002L39.5298 0.0100098Z" fill="#002240"/>
<path d="M71.1004 40.61C69.6304 39.51 68.9004 37.82 68.9004 35.53C68.9004 34.62 68.9704 33.8 69.1204 33.07L71.3204 20.66C71.8804 17.52 73.0504 15.2 74.8404 13.71C76.6304 12.21 79.1404 11.47 82.3604 11.47H93.7104L93.2304 14.02H82.5804C80.2304 14.02 78.4004 14.56 77.0804 15.63C75.7604 16.7 74.8904 18.38 74.4804 20.67L73.6004 25.6H88.9604L88.5204 28.15H73.1604L72.2804 33.08C72.1604 33.7 72.1004 34.34 72.1004 35.02C72.1004 36.63 72.5904 37.82 73.5704 38.58C74.5504 39.34 76.0404 39.72 78.0404 39.72H88.9504L88.5104 42.27H77.8204C74.8104 42.26 72.5704 41.71 71.1004 40.61Z" fill="#002240"/>
<path d="M113.69 32.36H99.7903L94.9903 42.26H91.8203L104.32 16.52C105.29 14.56 106.2 13.14 107.07 12.27C107.94 11.41 109.06 10.97 110.44 10.97C111.79 10.97 112.78 11.38 113.41 12.2C114.04 13.02 114.49 14.46 114.75 16.51L118.18 42.25H114.97L113.69 32.36ZM113.34 29.9L111.62 16.57C111.47 15.6 111.28 14.92 111.05 14.52C110.81 14.12 110.46 13.93 109.99 13.93C109.49 13.93 109.06 14.13 108.69 14.52C108.32 14.92 107.9 15.6 107.44 16.57L100.97 29.9H113.34Z" fill="#002240"/>
<path d="M155.41 25.35C156.14 26.07 156.71 26.96 157.1 28.03C157.5 29.1 157.85 30.56 158.18 32.41L159.94 42.27H153.69L151.97 33.03C151.73 31.86 151.51 30.98 151.29 30.39C151.07 29.8 150.69 29.31 150.15 28.89C149.61 28.48 148.79 28.19 147.71 28.01L141.95 33.38L140.37 42.27H134.17L139.58 11.47H145.78L143.27 25.64L158.23 11.47H165.53L152.33 23.7C153.65 24.08 154.67 24.63 155.41 25.35Z" fill="#002240"/>
<path d="M181.37 36.8101C181.37 37.3101 181.49 37.7501 181.72 38.1301C181.95 38.51 182.35 38.9501 182.91 39.4501L179.08 42.7901C177.32 41.7901 176.22 40.6801 175.78 39.4501C173.93 41.6801 171.56 42.7901 168.65 42.7901C166.74 42.7901 165.25 42.3401 164.16 41.4501C163.08 40.5601 162.53 39.2601 162.53 37.5601C162.53 35.0101 163.4 33.1601 165.15 32.0201C166.9 30.88 169.28 30.1601 172.3 29.8601L174.46 29.6401C175.31 29.5501 175.93 29.4101 176.31 29.2001C176.69 29.0001 176.94 28.66 177.06 28.19C177.26 26.08 176.31 25.0201 174.2 25.0201C173.03 25.0201 172.08 25.1801 171.36 25.5001C170.64 25.8201 169.8 26.4101 168.83 27.2601L165.4 24.5301C166.57 23.3301 167.86 22.4501 169.25 21.8901C170.64 21.3301 172.59 21.05 175.08 21.05C177.63 21.05 179.57 21.5701 180.89 22.6101C182.21 23.6501 182.87 25.1301 182.87 27.0301C182.87 27.3501 182.81 27.9201 182.69 28.7501L181.46 35.8801C181.4 36.3501 181.37 36.6601 181.37 36.8101ZM174.24 37.6001C175.15 36.8701 175.71 35.94 175.91 34.83L176.22 32.9801C175.75 33.1601 174.83 33.3201 173.45 33.4601L172.09 33.5901C169.48 33.8301 168.17 34.9 168.17 36.8C168.17 37.42 168.38 37.8901 168.79 38.2101C169.2 38.5301 169.76 38.69 170.46 38.69C172.07 38.7 173.33 38.3301 174.24 37.6001Z" fill="#002240"/>
<path d="M204.73 25.8901L190.3 37.4201C190.45 37.7101 190.8 37.8601 191.36 37.8601H203.2L202.41 42.2601H189.17C187.79 42.2601 186.73 42.0401 185.98 41.6001C185.23 41.1601 184.86 40.4301 184.86 39.4001C184.86 39.2201 184.89 38.9301 184.95 38.5201L185.35 36.1901L198.2 25.9801H187.6L188.39 21.5801H205.48L204.73 25.8901Z" fill="#002240"/>
<path d="M207.831 40.5C207.261 39.68 206.971 38.71 206.971 37.6C206.971 37.13 207.011 36.62 207.101 36.06L209.651 21.58H215.371L212.861 35.88C212.801 36.23 212.771 36.48 212.771 36.63C212.771 37.16 212.901 37.64 213.141 38.08C213.391 38.52 213.791 38.97 214.351 39.44L210.521 42.78C209.311 42.09 208.401 41.32 207.831 40.5ZM211.071 18.02C210.541 17.49 210.281 16.85 210.281 16.08C210.281 15.08 210.681 14.19 211.491 13.4C212.301 12.61 213.211 12.21 214.241 12.21C215.001 12.21 215.651 12.48 216.181 13.02C216.711 13.56 216.971 14.22 216.971 14.98C216.971 15.95 216.571 16.83 215.761 17.62C214.951 18.41 214.051 18.81 213.051 18.81C212.251 18.81 211.591 18.55 211.071 18.02Z" fill="#002240"/>
</svg>
