<svg width="19" height="19" viewBox="0 0 19 19" fill="none" xmlns="http://www.w3.org/2000/svg">
<path d="M18.6875 9.5V8.1875H17.375V5.5625C17.3741 4.86657 17.0973 4.1994 16.6052 3.7073C16.1131 3.21521 15.4459 2.93837 14.75 2.9375H13.4375V0.3125H12.125V2.9375H6.875V0.3125H5.5625V2.9375H4.25C3.55407 2.93837 2.8869 3.21521 2.3948 3.7073C1.90271 4.1994 1.62587 4.86657 1.625 5.5625V8.1875H0.3125V9.5H1.625V12.7812H0.3125V14.0938H1.625V16.0625C1.62587 16.7584 1.90271 17.4256 2.3948 17.9177C2.8869 18.4098 3.55407 18.6866 4.25 18.6875H14.75C15.4459 18.6866 16.1131 18.4098 16.6052 17.9177C17.0973 17.4256 17.3741 16.7584 17.375 16.0625V14.0938H18.6875V12.7812H17.375V9.5H18.6875ZM16.0625 16.0625C16.0622 16.4105 15.9238 16.7441 15.6777 16.9902C15.4316 17.2363 15.098 17.3747 14.75 17.375H4.25C3.90201 17.3747 3.56837 17.2363 3.32231 16.9902C3.07624 16.7441 2.93785 16.4105 2.9375 16.0625V5.5625C2.93785 5.21451 3.07624 4.88087 3.32231 4.63481C3.56837 4.38874 3.90201 4.25035 4.25 4.25H14.75C15.098 4.25035 15.4316 4.38874 15.6777 4.63481C15.9238 4.88087 16.0622 5.21451 16.0625 5.5625V16.0625Z" fill="#587CF4" fill-opacity="0.8"/>
</svg>
