<svg width="18" height="18" viewBox="0 0 18 18" fill="none" xmlns="http://www.w3.org/2000/svg">
<path d="M15.5864 2.41333C15.5105 2.33777 15.4146 2.28546 15.31 2.26254C15.2054 2.23962 15.0964 2.24705 14.9958 2.28396L2.62082 6.78396C2.5141 6.82444 2.42222 6.89643 2.35738 6.99037C2.29254 7.08431 2.25781 7.19575 2.25781 7.30989C2.25781 7.42404 2.29254 7.53548 2.35738 7.62942C2.42222 7.72336 2.5141 7.79535 2.62082 7.83583L7.4527 9.76521L11.0189 6.18771L11.8121 6.98083L8.22895 10.564L10.1639 15.3958C10.2056 15.5005 10.2778 15.5902 10.3711 15.6534C10.4643 15.7166 10.5744 15.7503 10.6871 15.7502C10.8007 15.7479 10.911 15.7112 11.0034 15.6449C11.0958 15.5786 11.1659 15.4859 11.2046 15.379L15.7046 3.00396C15.7429 2.90444 15.7521 2.79607 15.7312 2.6915C15.7103 2.58693 15.6601 2.49046 15.5864 2.41333Z" fill="white"/>
</svg>
